<svg width="213" height="235" viewBox="0 0 213 235" fill="none" xmlns="http://www.w3.org/2000/svg">
<path d="M201 219.5C201 224.747 163.616 229 117.5 229C71.3842 229 34 224.747 34 219.5C34 214.253 71.3842 210 117.5 210C163.616 210 201 214.253 201 219.5Z" fill="#CCCCCC"/>
<path d="M117.142 160.611C143.682 160.611 156.842 151.004 165.086 145.602C178.089 137.083 194.754 114.123 193.754 116C192.754 117.877 181.254 136 176.254 145C173.712 149.577 175.179 180.381 174.754 185C173.754 195.877 173.555 201.709 165.086 207.5C159.754 211.146 150.489 211.146 150.489 211.146C150.011 221.645 144.754 221.5 144.754 221.5C144.754 221.5 137.754 223.499 137.754 211.5L116.754 212H105.754H95.2544C95.2544 212.996 94.7544 223.5 87.5907 222.474C84.0957 221.974 82.2544 215.982 82.2544 211.5C76.9255 211.5 57.7233 208.916 56.7544 188.5V183V174V157V151.5L51.2544 145.602L44.2544 136C42.3429 132.5 60.2628 160.611 117.142 160.611Z" fill="#519C95"/>
<path d="M43.7545 133.914C44.8753 133.353 47.7545 133.414 47.7545 133.414C46.9402 132.539 44.7637 130.414 43.2545 130.414C41.7452 130.414 39.6526 131.601 39.2452 132.914C38.3343 135.848 40.2545 137.914 40.2545 137.914C40.6588 136.653 41.4077 135.087 43.7545 133.914Z" fill="#519C95"/>
<path d="M184.754 110L211.754 82L212.254 112.5L201.254 111.5L200.254 117.5L197.754 111L209.254 90L194.754 109.5L184.754 110Z" fill="#519C95" stroke="#519C95"/>
<path d="M73.2123 66.7242C67.5481 68.7515 61.2771 74.3269 58.7485 79.6995C56.7256 83.8557 56.6244 85.3762 56.8267 111.834L57.1302 139.609L64.9184 142.954C89.4967 153.497 117.716 155.119 142.092 147.516C151.903 144.475 164.445 138.089 171.02 132.817L175.976 128.965V106.867C175.976 85.0721 175.976 84.6666 173.346 79.4967C170.312 73.3132 165.255 68.8529 158.882 66.6228C152.409 64.3926 79.4833 64.494 73.2123 66.7242ZM99.3078 101.595C102.848 104.332 104.466 108.894 103.859 114.368C102.646 125.417 91.115 128.864 86.3612 119.639C80.5959 108.387 90.5081 94.6009 99.3078 101.595ZM143.812 105.549C146.34 107.576 150.386 115.382 149.476 116.395C149.172 116.598 147.554 115.483 145.835 113.76C142.904 111.226 141.991 110.719 138.046 110.719C134.102 110.719 132.787 111.226 130.258 113.76C126.516 117.51 125.808 117.105 127.426 112.341C129.854 104.738 138.35 101.291 143.812 105.549Z" fill="#FF6803"/>
<rect x="149.533" y="21" width="2.01692" height="44" fill="#FF6803"/>
<path d="M87.5124 22.2222H79.949C79.949 18.7222 79.949 13.2222 80.4532 11.2222C80.9574 9.22222 81.4617 0.222223 92.5547 0.222223C105.834 0.222223 134.406 -0.277778 141.969 0.222223C149.627 0.728468 153.5 8.77778 153.5 13V17.5L153.566 21.7222H146.507C146.507 19.2222 146.003 13.8715 146.003 12.2222C146.003 7.5 139.517 6.72222 137.5 6.72222C122.877 6.72222 95.5595 6.30839 92.5547 6.72222C90.5378 7 87.5124 8.5 87.5124 13V14.5V15.7222V18.2222V22.2222Z" fill="#FF6803"/>
<rect x="81.9658" y="21" width="2.01692" height="44" fill="#FF6803"/>
</svg>
